<?xml version="1.0" encoding="utf-8"?>
<!-- Generator: Adobe Illustrator 14.0.0, SVG Export Plug-In . SVG Version: 6.00 Build 43363)  -->
<!DOCTYPE svg PUBLIC "-//W3C//DTD SVG 1.1//EN" "http://www.w3.org/Graphics/SVG/1.1/DTD/svg11.dtd">
<svg version="1.1" id="Layer_1" xmlns="http://www.w3.org/2000/svg" xmlns:xlink="http://www.w3.org/1999/xlink" x="0px" y="0px"
	 width="264.5px" height="76px" viewBox="0 0 264.5 76" enable-background="new 0 0 264.5 76" xml:space="preserve">
<g>
	<defs>
		<rect id="SVGID_1_" y="0" width="264.5" height="76"/>
	</defs>
	<clipPath id="SVGID_2_">
		<use xlink:href="#SVGID_1_"  overflow="visible"/>
	</clipPath>
	<g clip-path="url(#SVGID_2_)">
		<path fill="#50A5DC" d="M60.236,49.362l-0.127-4.27c-1.729,1.709-3.485,2.94-5.269,3.7c-1.782,0.76-3.654,1.14-5.616,1.14
			c-1.814,0-3.364-0.233-4.652-0.697c-1.287-0.464-2.347-1.102-3.179-1.915c-0.833-0.81-1.445-1.764-1.835-2.862
			c-0.391-1.097-0.586-2.289-0.586-3.574c0-3.187,1.186-5.682,3.56-7.484c2.373-1.804,5.88-2.705,10.521-2.705h6.581v-2.785
			c0-1.877-0.601-3.38-1.803-4.509c-1.202-1.128-3.038-1.692-5.506-1.692c-1.793,0-3.56,0.2-5.3,0.6
			c-1.74,0.402-3.539,0.971-5.394,1.709v-4.968c0.695-0.253,1.471-0.5,2.325-0.743c0.855-0.242,1.756-0.459,2.705-0.649
			c0.95-0.19,1.941-0.342,2.974-0.459c1.034-0.115,2.078-0.174,3.133-0.174c1.92,0,3.649,0.211,5.19,0.633
			c1.539,0.423,2.842,1.066,3.908,1.931c1.064,0.865,1.881,1.951,2.451,3.259c0.57,1.308,0.855,2.847,0.855,4.619v21.896H60.236z
			 M59.634,34.902h-6.992c-1.372,0-2.553,0.139-3.544,0.413c-0.992,0.274-1.803,0.663-2.437,1.17
			c-0.632,0.506-1.102,1.111-1.408,1.818c-0.306,0.708-0.458,1.503-0.458,2.391c0,0.611,0.095,1.196,0.285,1.755
			c0.19,0.56,0.495,1.056,0.917,1.488c0.421,0.433,0.969,0.774,1.645,1.026c0.675,0.255,1.498,0.381,2.468,0.381
			c1.266,0,2.716-0.385,4.352-1.155c1.634-0.77,3.359-1.989,5.172-3.654V34.902z M36.489,49.931h-5.506l-0.822-25.788l-0.349-9.904
			l-1.93,5.758l-6.106,16.455h-3.894l-5.821-15.821l-1.929-6.392l-0.128,10.347L9.278,49.931H3.961L5.985,8.575h6.678l5.568,15.568
			l1.805,5.252l1.74-5.252L27.63,8.575h6.865L36.489,49.931z"/>
		<path fill="#50A5DC" d="M65.872,34.143c0-2.7,0.369-5.099,1.109-7.199c0.737-2.098,1.786-3.87,3.147-5.316
			c1.361-1.444,2.996-2.541,4.905-3.29c1.909-0.748,4.034-1.124,6.375-1.124c1.014,0,2.01,0.063,2.99,0.19
			c0.982,0.127,1.947,0.328,2.895,0.602V4.652h5.538v44.71h-4.935l-0.19-6.012c-1.541,2.235-3.208,3.892-4.999,4.968
			c-1.795,1.074-3.734,1.613-5.823,1.613c-1.815,0-3.413-0.38-4.794-1.139c-1.382-0.76-2.532-1.831-3.449-3.213
			c-0.918-1.381-1.609-3.041-2.073-4.984C66.104,38.658,65.872,36.506,65.872,34.143 M71.504,33.794
			c0,3.839,0.563,6.703,1.692,8.591c1.128,1.888,2.726,2.832,4.793,2.832c1.393,0,2.864-0.622,4.414-1.866
			c1.552-1.245,3.182-3.091,4.889-5.537V23.067c-0.906-0.421-1.908-0.743-3.005-0.965c-1.097-0.221-2.184-0.332-3.259-0.332
			c-2.996,0-5.333,0.97-7.009,2.911C72.341,26.623,71.504,29.661,71.504,33.794"/>
		<path fill="#50A5DC" d="M121.979,31.801c0,0.781-0.012,1.435-0.033,1.961c-0.021,0.528-0.053,1.024-0.095,1.488H99.544
			c0,3.248,0.906,5.743,2.721,7.484c1.815,1.739,4.429,2.609,7.847,2.609c0.928,0,1.855-0.037,2.785-0.11
			c0.927-0.072,1.824-0.174,2.689-0.3c0.866-0.128,1.693-0.27,2.484-0.427c0.791-0.159,1.524-0.333,2.2-0.523v4.525
			c-1.499,0.421-3.191,0.764-5.079,1.028c-1.888,0.264-3.844,0.396-5.869,0.396c-2.722,0-5.063-0.371-7.026-1.108
			c-1.961-0.737-3.57-1.809-4.825-3.211c-1.254-1.401-2.183-3.123-2.784-5.157s-0.901-4.341-0.901-6.915
			c0-2.236,0.32-4.351,0.965-6.344c0.642-1.993,1.581-3.744,2.815-5.252c1.234-1.509,2.747-2.706,4.54-3.592
			c1.793-0.886,3.829-1.329,6.107-1.329c2.215,0,4.178,0.348,5.887,1.044c1.707,0.697,3.147,1.683,4.319,2.959
			c1.17,1.276,2.056,2.826,2.657,4.651C121.679,27.503,121.979,29.544,121.979,31.801 M116.251,31.01
			c0.063-1.414-0.075-2.705-0.411-3.876c-0.338-1.171-0.861-2.178-1.568-3.022c-0.706-0.844-1.587-1.503-2.641-1.977
			c-1.055-0.475-2.278-0.713-3.67-0.713c-1.203,0-2.3,0.233-3.292,0.697c-0.991,0.464-1.845,1.118-2.563,1.961
			c-0.716,0.844-1.296,1.857-1.74,3.038c-0.442,1.182-0.718,2.478-0.822,3.892H116.251z"/>
		<path fill="#50A5DC" d="M132.035,22.15h-9.398v-4.557h14.967v27.182h9.461v4.588h-25.472v-4.588h10.442V22.15z M133.965,4.272
			c0.612,0,1.181,0.11,1.709,0.333c0.526,0.221,0.985,0.532,1.376,0.933c0.391,0.401,0.695,0.859,0.918,1.376
			c0.221,0.518,0.331,1.082,0.331,1.693c0,0.591-0.11,1.15-0.331,1.677c-0.223,0.527-0.527,0.992-0.918,1.393
			c-0.391,0.4-0.85,0.711-1.376,0.933c-0.528,0.222-1.097,0.332-1.709,0.332s-1.182-0.11-1.709-0.332
			c-0.528-0.222-0.987-0.533-1.376-0.933c-0.391-0.401-0.697-0.866-0.918-1.393c-0.221-0.527-0.331-1.086-0.331-1.677
			c0-0.611,0.11-1.175,0.331-1.693c0.221-0.517,0.527-0.975,0.918-1.376c0.389-0.401,0.848-0.712,1.376-0.933
			C132.783,4.382,133.353,4.272,133.965,4.272"/>
		<path fill="#50A5DC" d="M148.576,17.594h5.032l0.157,5.854c1.879-2.257,3.729-3.892,5.554-4.905
			c1.825-1.012,3.665-1.519,5.521-1.519c3.29,0,5.785,1.066,7.483,3.196c1.698,2.131,2.484,5.295,2.358,9.493h-5.569
			c0.062-2.785-0.344-4.804-1.219-6.059c-0.876-1.255-2.157-1.883-3.845-1.883c-0.738,0-1.482,0.132-2.229,0.396
			c-0.75,0.263-1.52,0.685-2.312,1.265c-0.791,0.58-1.63,1.324-2.516,2.23c-0.885,0.908-1.835,2.005-2.848,3.291v20.41h-5.569
			V17.594z"/>
		<path fill="#50A5DC" d="M193.755,49.362l-0.128-4.27c-1.729,1.709-3.485,2.94-5.268,3.7c-1.783,0.76-3.655,1.14-5.616,1.14
			c-1.815,0-3.365-0.233-4.652-0.697c-1.288-0.464-2.347-1.102-3.18-1.915c-0.833-0.81-1.445-1.764-1.835-2.862
			c-0.392-1.097-0.585-2.289-0.585-3.574c0-3.187,1.186-5.682,3.559-7.484c2.374-1.804,5.88-2.705,10.521-2.705h6.581v-2.785
			c0-1.877-0.602-3.38-1.803-4.509c-1.203-1.128-3.038-1.692-5.507-1.692c-1.793,0-3.559,0.2-5.299,0.6
			c-1.741,0.402-3.539,0.971-5.396,1.709v-4.968c0.696-0.253,1.472-0.5,2.325-0.743c0.855-0.242,1.756-0.459,2.705-0.649
			c0.95-0.19,1.941-0.342,2.976-0.459c1.032-0.115,2.077-0.174,3.133-0.174c1.919,0,3.647,0.211,5.188,0.633
			c1.539,0.423,2.843,1.066,3.908,1.931c1.064,0.865,1.882,1.951,2.452,3.259c0.569,1.308,0.854,2.847,0.854,4.619v21.896H193.755z
			 M193.152,34.902h-6.991c-1.373,0-2.555,0.139-3.544,0.413c-0.993,0.274-1.805,0.663-2.438,1.17
			c-0.631,0.506-1.102,1.111-1.408,1.818c-0.305,0.708-0.458,1.503-0.458,2.391c0,0.611,0.096,1.196,0.285,1.755
			c0.19,0.56,0.495,1.056,0.917,1.488s0.971,0.774,1.646,1.026c0.676,0.255,1.499,0.381,2.469,0.381
			c1.265,0,2.715-0.385,4.351-1.155c1.635-0.77,3.359-1.989,5.173-3.654V34.902z"/>
	</g>
	<path clip-path="url(#SVGID_2_)" d="M200.885,47.056c0-1.391,0.939-2.366,2.253-2.366c1.315,0,2.215,0.976,2.215,2.366
		c0,1.353-0.862,2.365-2.252,2.365C201.785,49.421,200.885,48.409,200.885,47.056"/>
	<path clip-path="url(#SVGID_2_)" d="M210.986,30.831l2.591,3.906c0.677,1.014,1.238,1.953,1.84,2.968h0.113
		c0.601-1.089,1.201-2.03,1.804-3.005l2.554-3.869h3.568l-6.198,8.788l6.384,9.39h-3.754l-2.669-4.095
		c-0.711-1.052-1.313-2.063-1.95-3.152h-0.076c-0.601,1.09-1.24,2.063-1.916,3.152l-2.629,4.095h-3.644l6.461-9.277l-6.16-8.9
		H210.986z"/>
	<path clip-path="url(#SVGID_2_)" d="M228.599,30.831l3.98,10.742c0.414,1.201,0.864,2.629,1.166,3.718h0.074
		c0.337-1.089,0.715-2.479,1.165-3.794l3.604-10.666h3.494l-4.957,12.957c-2.367,6.234-3.982,9.429-6.235,11.381
		c-1.614,1.427-3.229,1.991-4.058,2.142l-0.824-2.78c0.824-0.262,1.914-0.788,2.891-1.616c0.902-0.713,2.029-1.988,2.779-3.679
		c0.15-0.34,0.265-0.601,0.265-0.791c0-0.187-0.076-0.448-0.226-0.862l-6.722-16.75H228.599z"/>
	<path clip-path="url(#SVGID_2_)" d="M243.019,47.093l8.226-10.704c0.789-0.975,1.539-1.841,2.367-2.816v-0.076h-9.842v-2.666
		h13.858l-0.037,2.066l-8.113,10.555c-0.751,1.013-1.503,1.913-2.327,2.853v0.076h10.627v2.628h-14.759V47.093z"/>
</g>
<g>
	<path fill="#414042" d="M9.632,60.056H6.165v3.071h3.208v0.935H6.165v3.932h-1.04v-8.879h4.507V60.056z"/>
	<path fill="#414042" d="M15.25,67.994h-1.016v-0.99h-0.025c-0.441,0.759-1.092,1.139-1.95,1.139c-0.631,0-1.126-0.167-1.483-0.501
		c-0.357-0.335-0.536-0.778-0.536-1.332c0-1.185,0.698-1.873,2.093-2.067l1.901-0.267c0-1.077-0.436-1.616-1.307-1.616
		c-0.764,0-1.453,0.261-2.068,0.78v-1.04c0.624-0.396,1.342-0.594,2.155-0.594c1.49,0,2.235,0.788,2.235,2.364V67.994z
		 M14.234,64.787l-1.529,0.21c-0.471,0.066-0.826,0.183-1.065,0.351c-0.239,0.167-0.359,0.463-0.359,0.888
		c0,0.31,0.11,0.563,0.331,0.759s0.515,0.294,0.882,0.294c0.503,0,0.919-0.176,1.248-0.529c0.328-0.353,0.492-0.8,0.492-1.341
		V64.787z"/>
	<path fill="#414042" d="M21.484,67.703c-0.487,0.293-1.065,0.439-1.734,0.439c-0.904,0-1.633-0.294-2.188-0.882
		c-0.555-0.589-0.833-1.351-0.833-2.288c0-1.044,0.299-1.883,0.898-2.517s1.397-0.95,2.396-0.95c0.557,0,1.048,0.103,1.474,0.31
		v1.04c-0.471-0.33-0.974-0.496-1.511-0.496c-0.648,0-1.179,0.232-1.594,0.697c-0.415,0.464-0.622,1.074-0.622,1.829
		c0,0.743,0.195,1.329,0.585,1.759c0.39,0.429,0.913,0.644,1.569,0.644c0.553,0,1.073-0.184,1.561-0.551V67.703z"/>
	<path fill="#414042" d="M23.54,60.043c-0.182,0-0.336-0.062-0.464-0.186s-0.192-0.28-0.192-0.471c0-0.189,0.064-0.348,0.192-0.474
		s0.283-0.188,0.464-0.188c0.186,0,0.344,0.063,0.474,0.188s0.195,0.284,0.195,0.474c0,0.182-0.065,0.337-0.195,0.465
		S23.726,60.043,23.54,60.043z M24.035,67.994H23.02v-6.34h1.015V67.994z"/>
	<path fill="#414042" d="M27.106,67.994h-1.015v-9.387h1.015V67.994z"/>
	<path fill="#414042" d="M29.682,60.043c-0.182,0-0.336-0.062-0.464-0.186s-0.192-0.28-0.192-0.471c0-0.189,0.064-0.348,0.192-0.474
		s0.283-0.188,0.464-0.188c0.186,0,0.344,0.063,0.474,0.188s0.195,0.284,0.195,0.474c0,0.182-0.065,0.337-0.195,0.465
		S29.868,60.043,29.682,60.043z M30.177,67.994h-1.015v-6.34h1.015V67.994z"/>
	<path fill="#414042" d="M35.174,67.932c-0.239,0.132-0.555,0.197-0.947,0.197c-1.11,0-1.666-0.619-1.666-1.857V62.52h-1.09v-0.866
		h1.09v-1.548l1.016-0.328v1.876h1.597v0.866h-1.597v3.573c0,0.425,0.072,0.729,0.216,0.91s0.384,0.272,0.718,0.272
		c0.256,0,0.477-0.07,0.663-0.211V67.932z"/>
	<path fill="#414042" d="M41.068,67.994h-1.016v-0.99h-0.025c-0.441,0.759-1.092,1.139-1.95,1.139c-0.631,0-1.126-0.167-1.483-0.501
		c-0.357-0.335-0.536-0.778-0.536-1.332c0-1.185,0.698-1.873,2.093-2.067l1.901-0.267c0-1.077-0.436-1.616-1.307-1.616
		c-0.764,0-1.453,0.261-2.068,0.78v-1.04c0.624-0.396,1.342-0.594,2.155-0.594c1.49,0,2.235,0.788,2.235,2.364V67.994z
		 M40.053,64.787l-1.529,0.21c-0.471,0.066-0.826,0.183-1.065,0.351c-0.239,0.167-0.359,0.463-0.359,0.888
		c0,0.31,0.11,0.563,0.331,0.759s0.515,0.294,0.882,0.294c0.503,0,0.919-0.176,1.248-0.529c0.328-0.353,0.492-0.8,0.492-1.341
		V64.787z"/>
	<path fill="#414042" d="M51.984,67.994h-1.015v-3.641c0-0.702-0.108-1.209-0.325-1.523c-0.217-0.313-0.581-0.471-1.093-0.471
		c-0.434,0-0.802,0.198-1.105,0.595c-0.303,0.396-0.455,0.871-0.455,1.424v3.616h-1.015v-3.765c0-1.246-0.481-1.87-1.443-1.87
		c-0.446,0-0.813,0.188-1.102,0.561c-0.289,0.374-0.434,0.86-0.434,1.458v3.616h-1.015v-6.34h1.015v1.003h0.025
		c0.45-0.768,1.106-1.151,1.969-1.151c0.433,0,0.811,0.12,1.133,0.361c0.322,0.242,0.543,0.559,0.663,0.951
		c0.471-0.875,1.172-1.313,2.105-1.313c1.395,0,2.093,0.86,2.093,2.581V67.994z"/>
	<path fill="#414042" d="M56.553,68.142c-0.937,0-1.685-0.296-2.245-0.889c-0.559-0.592-0.839-1.377-0.839-2.355
		c0-1.065,0.291-1.896,0.873-2.495s1.369-0.897,2.359-0.897c0.945,0,1.683,0.291,2.214,0.872c0.53,0.582,0.795,1.39,0.795,2.421
		c0,1.012-0.286,1.822-0.857,2.431C58.282,67.838,57.515,68.142,56.553,68.142z M56.627,62.359c-0.652,0-1.168,0.223-1.548,0.666
		s-0.569,1.056-0.569,1.836c0,0.751,0.192,1.344,0.576,1.777c0.384,0.433,0.898,0.649,1.542,0.649c0.656,0,1.161-0.212,1.514-0.638
		c0.353-0.425,0.529-1.029,0.529-1.813c0-0.793-0.177-1.404-0.529-1.833C57.789,62.574,57.284,62.359,56.627,62.359z"/>
	<path fill="#414042" d="M60.949,67.764v-1.089c0.553,0.408,1.162,0.612,1.826,0.612c0.892,0,1.337-0.297,1.337-0.892
		c0-0.169-0.038-0.313-0.114-0.43c-0.077-0.118-0.18-0.223-0.31-0.313c-0.13-0.09-0.283-0.172-0.458-0.244
		c-0.175-0.072-0.364-0.147-0.566-0.226c-0.281-0.112-0.527-0.225-0.74-0.338c-0.213-0.113-0.39-0.241-0.533-0.384
		c-0.142-0.143-0.25-0.305-0.322-0.486s-0.108-0.394-0.108-0.638c0-0.297,0.068-0.561,0.205-0.789
		c0.136-0.229,0.317-0.421,0.544-0.576c0.227-0.154,0.486-0.271,0.777-0.35s0.591-0.117,0.901-0.117c0.549,0,1.04,0.095,1.474,0.284
		v1.028c-0.467-0.306-1.003-0.459-1.61-0.459c-0.19,0-0.361,0.022-0.514,0.065c-0.152,0.043-0.284,0.104-0.393,0.183
		s-0.194,0.173-0.254,0.282c-0.06,0.109-0.09,0.229-0.09,0.361c0,0.166,0.03,0.304,0.09,0.415c0.06,0.111,0.147,0.211,0.263,0.298
		c0.116,0.086,0.256,0.165,0.421,0.234c0.165,0.07,0.353,0.147,0.563,0.229c0.281,0.107,0.533,0.218,0.755,0.331
		c0.223,0.114,0.413,0.242,0.57,0.384c0.157,0.143,0.277,0.307,0.362,0.492c0.084,0.187,0.127,0.407,0.127,0.663
		c0,0.313-0.069,0.586-0.208,0.817c-0.138,0.23-0.323,0.423-0.554,0.575c-0.231,0.153-0.498,0.267-0.799,0.341
		s-0.617,0.111-0.947,0.111C61.993,68.142,61.428,68.016,60.949,67.764z"/>
	<path fill="#414042" d="M74.726,67.994H73.71v-0.99h-0.025c-0.441,0.759-1.092,1.139-1.95,1.139c-0.631,0-1.126-0.167-1.483-0.501
		c-0.357-0.335-0.536-0.778-0.536-1.332c0-1.185,0.698-1.873,2.093-2.067l1.901-0.267c0-1.077-0.436-1.616-1.307-1.616
		c-0.764,0-1.453,0.261-2.068,0.78v-1.04c0.624-0.396,1.342-0.594,2.155-0.594c1.49,0,2.235,0.788,2.235,2.364V67.994z
		 M73.71,64.787l-1.529,0.21c-0.471,0.066-0.826,0.183-1.065,0.351c-0.239,0.167-0.359,0.463-0.359,0.888
		c0,0.31,0.11,0.563,0.331,0.759s0.515,0.294,0.882,0.294c0.503,0,0.919-0.176,1.248-0.529c0.328-0.353,0.492-0.8,0.492-1.341
		V64.787z"/>
	<path fill="#414042" d="M76.255,67.764v-1.089c0.553,0.408,1.162,0.612,1.826,0.612c0.892,0,1.337-0.297,1.337-0.892
		c0-0.169-0.038-0.313-0.114-0.43c-0.077-0.118-0.18-0.223-0.31-0.313c-0.13-0.09-0.283-0.172-0.458-0.244
		c-0.175-0.072-0.364-0.147-0.566-0.226c-0.281-0.112-0.527-0.225-0.74-0.338c-0.213-0.113-0.39-0.241-0.533-0.384
		c-0.142-0.143-0.25-0.305-0.322-0.486s-0.108-0.394-0.108-0.638c0-0.297,0.068-0.561,0.205-0.789
		c0.136-0.229,0.317-0.421,0.544-0.576c0.227-0.154,0.486-0.271,0.777-0.35s0.591-0.117,0.901-0.117c0.549,0,1.04,0.095,1.474,0.284
		v1.028c-0.467-0.306-1.003-0.459-1.61-0.459c-0.19,0-0.361,0.022-0.514,0.065c-0.152,0.043-0.284,0.104-0.393,0.183
		s-0.194,0.173-0.254,0.282c-0.06,0.109-0.09,0.229-0.09,0.361c0,0.166,0.03,0.304,0.09,0.415c0.06,0.111,0.147,0.211,0.263,0.298
		c0.116,0.086,0.256,0.165,0.421,0.234c0.165,0.07,0.353,0.147,0.563,0.229c0.281,0.107,0.533,0.218,0.755,0.331
		c0.223,0.114,0.413,0.242,0.57,0.384c0.157,0.143,0.277,0.307,0.362,0.492c0.084,0.187,0.127,0.407,0.127,0.663
		c0,0.313-0.069,0.586-0.208,0.817c-0.138,0.23-0.323,0.423-0.554,0.575c-0.231,0.153-0.498,0.267-0.799,0.341
		s-0.617,0.111-0.947,0.111C77.299,68.142,76.733,68.016,76.255,67.764z"/>
	<path fill="#414042" d="M85.109,67.764v-1.089c0.553,0.408,1.162,0.612,1.826,0.612c0.892,0,1.337-0.297,1.337-0.892
		c0-0.169-0.038-0.313-0.114-0.43c-0.077-0.118-0.18-0.223-0.31-0.313c-0.13-0.09-0.283-0.172-0.458-0.244
		c-0.175-0.072-0.364-0.147-0.566-0.226c-0.281-0.112-0.527-0.225-0.74-0.338c-0.213-0.113-0.39-0.241-0.533-0.384
		c-0.142-0.143-0.25-0.305-0.322-0.486s-0.108-0.394-0.108-0.638c0-0.297,0.068-0.561,0.205-0.789
		c0.136-0.229,0.317-0.421,0.544-0.576c0.227-0.154,0.486-0.271,0.777-0.35s0.591-0.117,0.901-0.117c0.549,0,1.04,0.095,1.474,0.284
		v1.028c-0.467-0.306-1.003-0.459-1.61-0.459c-0.19,0-0.361,0.022-0.514,0.065c-0.152,0.043-0.284,0.104-0.393,0.183
		s-0.194,0.173-0.254,0.282c-0.06,0.109-0.09,0.229-0.09,0.361c0,0.166,0.03,0.304,0.09,0.415c0.06,0.111,0.147,0.211,0.263,0.298
		c0.116,0.086,0.256,0.165,0.421,0.234c0.165,0.07,0.353,0.147,0.563,0.229c0.281,0.107,0.533,0.218,0.755,0.331
		c0.223,0.114,0.413,0.242,0.57,0.384c0.157,0.143,0.277,0.307,0.362,0.492c0.084,0.187,0.127,0.407,0.127,0.663
		c0,0.313-0.069,0.586-0.208,0.817c-0.138,0.23-0.323,0.423-0.554,0.575c-0.231,0.153-0.498,0.267-0.799,0.341
		s-0.617,0.111-0.947,0.111C86.153,68.142,85.587,68.016,85.109,67.764z"/>
	<path fill="#414042" d="M96,67.994h-1.015v-1.003h-0.025c-0.421,0.768-1.073,1.151-1.957,1.151c-1.511,0-2.266-0.899-2.266-2.699
		v-3.789h1.009v3.628c0,1.337,0.512,2.006,1.536,2.006c0.495,0,0.903-0.183,1.223-0.548s0.48-0.843,0.48-1.434v-3.652H96V67.994z"/>
	<path fill="#414042" d="M102.587,67.994h-1.016v-0.99h-0.025c-0.441,0.759-1.092,1.139-1.95,1.139
		c-0.631,0-1.126-0.167-1.483-0.501c-0.357-0.335-0.536-0.778-0.536-1.332c0-1.185,0.698-1.873,2.093-2.067l1.901-0.267
		c0-1.077-0.436-1.616-1.307-1.616c-0.764,0-1.453,0.261-2.068,0.78v-1.04c0.624-0.396,1.342-0.594,2.155-0.594
		c1.49,0,2.235,0.788,2.235,2.364V67.994z M101.572,64.787l-1.529,0.21c-0.471,0.066-0.826,0.183-1.065,0.351
		c-0.239,0.167-0.359,0.463-0.359,0.888c0,0.31,0.11,0.563,0.331,0.759s0.515,0.294,0.882,0.294c0.503,0,0.919-0.176,1.248-0.529
		c0.328-0.353,0.492-0.8,0.492-1.341V64.787z"/>
	<path fill="#414042" d="M104.117,67.764v-1.089c0.553,0.408,1.162,0.612,1.826,0.612c0.892,0,1.337-0.297,1.337-0.892
		c0-0.169-0.038-0.313-0.114-0.43c-0.077-0.118-0.18-0.223-0.31-0.313c-0.13-0.09-0.283-0.172-0.458-0.244
		c-0.175-0.072-0.364-0.147-0.566-0.226c-0.281-0.112-0.527-0.225-0.74-0.338c-0.213-0.113-0.39-0.241-0.533-0.384
		c-0.142-0.143-0.25-0.305-0.322-0.486s-0.108-0.394-0.108-0.638c0-0.297,0.068-0.561,0.205-0.789
		c0.136-0.229,0.317-0.421,0.544-0.576c0.227-0.154,0.486-0.271,0.777-0.35s0.591-0.117,0.901-0.117c0.549,0,1.04,0.095,1.474,0.284
		v1.028c-0.467-0.306-1.003-0.459-1.61-0.459c-0.19,0-0.361,0.022-0.514,0.065c-0.152,0.043-0.284,0.104-0.393,0.183
		s-0.194,0.173-0.254,0.282c-0.06,0.109-0.09,0.229-0.09,0.361c0,0.166,0.03,0.304,0.09,0.415c0.06,0.111,0.147,0.211,0.263,0.298
		c0.116,0.086,0.256,0.165,0.421,0.234c0.165,0.07,0.353,0.147,0.563,0.229c0.281,0.107,0.533,0.218,0.755,0.331
		c0.223,0.114,0.413,0.242,0.57,0.384c0.157,0.143,0.277,0.307,0.362,0.492c0.084,0.187,0.127,0.407,0.127,0.663
		c0,0.313-0.069,0.586-0.208,0.817c-0.138,0.23-0.323,0.423-0.554,0.575c-0.231,0.153-0.498,0.267-0.799,0.341
		s-0.617,0.111-0.947,0.111C105.161,68.142,104.595,68.016,104.117,67.764z"/>
	<path fill="#414042" d="M114.395,67.078h-0.025v3.832h-1.015v-9.256h1.015v1.114h0.025c0.5-0.842,1.23-1.263,2.192-1.263
		c0.817,0,1.455,0.283,1.913,0.851c0.458,0.568,0.688,1.328,0.688,2.282c0,1.061-0.258,1.91-0.774,2.548
		c-0.516,0.638-1.222,0.956-2.118,0.956C115.474,68.142,114.84,67.788,114.395,67.078z M114.37,64.52v0.886
		c0,0.524,0.17,0.969,0.511,1.334c0.34,0.365,0.772,0.548,1.297,0.548c0.615,0,1.097-0.235,1.446-0.706
		c0.349-0.47,0.523-1.124,0.523-1.962c0-0.706-0.163-1.26-0.489-1.66c-0.326-0.399-0.768-0.601-1.325-0.601
		c-0.59,0-1.065,0.206-1.424,0.616C114.549,63.386,114.37,63.901,114.37,64.52z"/>
	<path fill="#414042" d="M125.905,65.078h-4.477c0.017,0.706,0.207,1.25,0.57,1.635c0.363,0.384,0.862,0.575,1.498,0.575
		c0.714,0,1.371-0.235,1.969-0.706v0.954c-0.558,0.404-1.294,0.606-2.21,0.606c-0.896,0-1.6-0.288-2.111-0.863
		c-0.512-0.576-0.768-1.386-0.768-2.431c0-0.986,0.28-1.79,0.839-2.411c0.56-0.621,1.254-0.932,2.083-0.932
		c0.83,0,1.472,0.268,1.926,0.805c0.454,0.536,0.681,1.281,0.681,2.235V65.078z M124.865,64.217
		c-0.004-0.587-0.146-1.043-0.424-1.369s-0.666-0.489-1.161-0.489c-0.479,0-0.885,0.172-1.22,0.515
		c-0.334,0.343-0.541,0.79-0.619,1.344H124.865z"/>
	<path fill="#414042" d="M127.057,67.764v-1.089c0.553,0.408,1.162,0.612,1.826,0.612c0.892,0,1.337-0.297,1.337-0.892
		c0-0.169-0.038-0.313-0.114-0.43c-0.077-0.118-0.18-0.223-0.31-0.313c-0.13-0.09-0.283-0.172-0.458-0.244
		c-0.175-0.072-0.364-0.147-0.566-0.226c-0.281-0.112-0.527-0.225-0.74-0.338c-0.213-0.113-0.39-0.241-0.533-0.384
		c-0.142-0.143-0.25-0.305-0.322-0.486s-0.108-0.394-0.108-0.638c0-0.297,0.068-0.561,0.205-0.789
		c0.136-0.229,0.317-0.421,0.544-0.576c0.227-0.154,0.486-0.271,0.777-0.35s0.591-0.117,0.901-0.117c0.549,0,1.04,0.095,1.474,0.284
		v1.028c-0.467-0.306-1.003-0.459-1.61-0.459c-0.19,0-0.361,0.022-0.514,0.065c-0.152,0.043-0.284,0.104-0.393,0.183
		s-0.194,0.173-0.254,0.282c-0.06,0.109-0.09,0.229-0.09,0.361c0,0.166,0.03,0.304,0.09,0.415c0.06,0.111,0.147,0.211,0.263,0.298
		c0.116,0.086,0.256,0.165,0.421,0.234c0.165,0.07,0.353,0.147,0.563,0.229c0.281,0.107,0.533,0.218,0.755,0.331
		c0.223,0.114,0.413,0.242,0.57,0.384c0.157,0.143,0.277,0.307,0.362,0.492c0.084,0.187,0.127,0.407,0.127,0.663
		c0,0.313-0.069,0.586-0.208,0.817c-0.138,0.23-0.323,0.423-0.554,0.575c-0.231,0.153-0.498,0.267-0.799,0.341
		s-0.617,0.111-0.947,0.111C128.101,68.142,127.535,68.016,127.057,67.764z"/>
	<path fill="#414042" d="M138.232,70.91h-1.016v-4.006h-0.024c-0.442,0.826-1.164,1.238-2.167,1.238
		c-0.797,0-1.436-0.283-1.917-0.852c-0.48-0.567-0.721-1.34-0.721-2.318c0-1.053,0.264-1.894,0.792-2.523
		c0.528-0.629,1.238-0.943,2.13-0.943c0.867,0,1.494,0.342,1.883,1.027h0.024v-0.879h1.016V70.91z M137.217,65.139v-0.922
		c0-0.521-0.17-0.96-0.511-1.319s-0.773-0.539-1.297-0.539c-0.611,0-1.094,0.227-1.449,0.679s-0.532,1.089-0.532,1.91
		c0,0.73,0.171,1.303,0.514,1.718s0.784,0.622,1.325,0.622c0.594,0,1.067-0.203,1.421-0.609
		C137.04,66.271,137.217,65.758,137.217,65.139z"/>
	<path fill="#414042" d="M145.414,67.994h-1.016v-1.003h-0.024c-0.421,0.768-1.073,1.151-1.957,1.151
		c-1.511,0-2.266-0.899-2.266-2.699v-3.789h1.009v3.628c0,1.337,0.512,2.006,1.536,2.006c0.495,0,0.902-0.183,1.223-0.548
		c0.319-0.365,0.479-0.843,0.479-1.434v-3.652h1.016V67.994z"/>
	<path fill="#414042" d="M147.983,60.043c-0.182,0-0.337-0.062-0.464-0.186c-0.129-0.124-0.192-0.28-0.192-0.471
		c0-0.189,0.063-0.348,0.192-0.474c0.127-0.126,0.282-0.188,0.464-0.188c0.186,0,0.344,0.063,0.474,0.188s0.195,0.284,0.195,0.474
		c0,0.182-0.065,0.337-0.195,0.465S148.169,60.043,147.983,60.043z M148.479,67.994h-1.016v-6.34h1.016V67.994z"/>
	<path fill="#414042" d="M150.15,67.764v-1.089c0.554,0.408,1.162,0.612,1.827,0.612c0.892,0,1.337-0.297,1.337-0.892
		c0-0.169-0.038-0.313-0.114-0.43c-0.076-0.118-0.18-0.223-0.31-0.313c-0.13-0.09-0.283-0.172-0.458-0.244
		c-0.176-0.072-0.364-0.147-0.566-0.226c-0.281-0.112-0.527-0.225-0.74-0.338s-0.39-0.241-0.532-0.384s-0.25-0.305-0.322-0.486
		s-0.108-0.394-0.108-0.638c0-0.297,0.068-0.561,0.204-0.789c0.137-0.229,0.318-0.421,0.545-0.576
		c0.228-0.154,0.486-0.271,0.777-0.35s0.591-0.117,0.9-0.117c0.549,0,1.041,0.095,1.474,0.284v1.028
		c-0.466-0.306-1.003-0.459-1.609-0.459c-0.19,0-0.361,0.022-0.514,0.065c-0.153,0.043-0.284,0.104-0.394,0.183
		s-0.194,0.173-0.254,0.282s-0.09,0.229-0.09,0.361c0,0.166,0.03,0.304,0.09,0.415s0.147,0.211,0.264,0.298
		c0.115,0.086,0.256,0.165,0.421,0.234c0.165,0.07,0.353,0.147,0.563,0.229c0.28,0.107,0.532,0.218,0.755,0.331
		c0.223,0.114,0.413,0.242,0.569,0.384c0.157,0.143,0.278,0.307,0.362,0.492c0.085,0.187,0.127,0.407,0.127,0.663
		c0,0.313-0.068,0.586-0.207,0.817c-0.139,0.23-0.323,0.423-0.555,0.575c-0.23,0.153-0.497,0.267-0.798,0.341
		c-0.302,0.074-0.617,0.111-0.947,0.111C151.195,68.142,150.63,68.016,150.15,67.764z"/>
	<path fill="#414042" d="M160.454,67.994h-1.016v-0.99h-0.024c-0.442,0.759-1.092,1.139-1.95,1.139
		c-0.632,0-1.126-0.167-1.483-0.501c-0.357-0.335-0.535-0.778-0.535-1.332c0-1.185,0.697-1.873,2.093-2.067l1.9-0.267
		c0-1.077-0.436-1.616-1.307-1.616c-0.764,0-1.453,0.261-2.067,0.78v-1.04c0.623-0.396,1.341-0.594,2.154-0.594
		c1.49,0,2.235,0.788,2.235,2.364V67.994z M159.438,64.787l-1.529,0.21c-0.471,0.066-0.825,0.183-1.065,0.351
		c-0.239,0.167-0.358,0.463-0.358,0.888c0,0.31,0.11,0.563,0.331,0.759s0.515,0.294,0.882,0.294c0.504,0,0.92-0.176,1.248-0.529
		c0.328-0.353,0.492-0.8,0.492-1.341V64.787z"/>
	<path fill="#414042" d="M161.982,67.764v-1.089c0.554,0.408,1.162,0.612,1.827,0.612c0.892,0,1.337-0.297,1.337-0.892
		c0-0.169-0.038-0.313-0.114-0.43c-0.076-0.118-0.18-0.223-0.31-0.313c-0.13-0.09-0.283-0.172-0.458-0.244
		c-0.176-0.072-0.364-0.147-0.566-0.226c-0.281-0.112-0.527-0.225-0.74-0.338s-0.39-0.241-0.532-0.384s-0.25-0.305-0.322-0.486
		s-0.108-0.394-0.108-0.638c0-0.297,0.068-0.561,0.204-0.789c0.137-0.229,0.318-0.421,0.545-0.576
		c0.228-0.154,0.486-0.271,0.777-0.35s0.591-0.117,0.9-0.117c0.549,0,1.041,0.095,1.474,0.284v1.028
		c-0.466-0.306-1.003-0.459-1.609-0.459c-0.19,0-0.361,0.022-0.514,0.065c-0.153,0.043-0.284,0.104-0.394,0.183
		s-0.194,0.173-0.254,0.282s-0.09,0.229-0.09,0.361c0,0.166,0.03,0.304,0.09,0.415s0.147,0.211,0.264,0.298
		c0.115,0.086,0.256,0.165,0.421,0.234c0.165,0.07,0.353,0.147,0.563,0.229c0.28,0.107,0.532,0.218,0.755,0.331
		c0.223,0.114,0.413,0.242,0.569,0.384c0.157,0.143,0.278,0.307,0.362,0.492c0.085,0.187,0.127,0.407,0.127,0.663
		c0,0.313-0.068,0.586-0.207,0.817c-0.139,0.23-0.323,0.423-0.555,0.575c-0.23,0.153-0.497,0.267-0.798,0.341
		c-0.302,0.074-0.617,0.111-0.947,0.111C163.027,68.142,162.462,68.016,161.982,67.764z"/>
	<path fill="#414042" d="M168.676,66.582l-0.99,3.047h-0.725l0.725-3.047H168.676z"/>
	<path fill="#414042" d="M178.953,61.654l-2.525,6.34h-0.997l-2.402-6.34h1.114l1.609,4.606c0.12,0.338,0.194,0.634,0.224,0.885H176
		c0.041-0.317,0.107-0.604,0.198-0.86l1.684-4.631H178.953z"/>
	<path fill="#414042" d="M185.075,65.078h-4.477c0.017,0.706,0.207,1.25,0.57,1.635c0.363,0.384,0.862,0.575,1.498,0.575
		c0.714,0,1.37-0.235,1.969-0.706v0.954c-0.557,0.404-1.294,0.606-2.21,0.606c-0.896,0-1.6-0.288-2.111-0.863
		c-0.512-0.576-0.768-1.386-0.768-2.431c0-0.986,0.279-1.79,0.839-2.411c0.559-0.621,1.254-0.932,2.083-0.932
		c0.83,0,1.472,0.268,1.926,0.805c0.454,0.536,0.681,1.281,0.681,2.235V65.078z M184.035,64.217
		c-0.004-0.587-0.146-1.043-0.424-1.369s-0.666-0.489-1.161-0.489c-0.479,0-0.885,0.172-1.22,0.515
		c-0.334,0.343-0.541,0.79-0.619,1.344H184.035z"/>
	<path fill="#414042" d="M191.874,67.994h-1.016v-3.616c0-1.346-0.491-2.019-1.474-2.019c-0.508,0-0.928,0.191-1.26,0.573
		c-0.333,0.382-0.499,0.863-0.499,1.445v3.616h-1.016v-6.34h1.016v1.053h0.025c0.479-0.801,1.172-1.201,2.08-1.201
		c0.693,0,1.224,0.224,1.591,0.671c0.367,0.448,0.552,1.096,0.552,1.941V67.994z"/>
	<path fill="#414042" d="M199.199,67.994h-1.016v-1.077h-0.024c-0.471,0.817-1.197,1.226-2.18,1.226
		c-0.797,0-1.434-0.283-1.91-0.852c-0.477-0.567-0.715-1.34-0.715-2.318c0-1.049,0.264-1.889,0.792-2.52
		c0.528-0.632,1.232-0.947,2.111-0.947c0.871,0,1.505,0.342,1.901,1.027h0.024v-3.926h1.016V67.994z M198.184,65.127v-0.936
		c0-0.512-0.169-0.945-0.508-1.3c-0.339-0.355-0.768-0.533-1.288-0.533c-0.619,0-1.105,0.228-1.461,0.682s-0.532,1.081-0.532,1.882
		c0,0.73,0.17,1.308,0.511,1.73c0.341,0.424,0.798,0.635,1.371,0.635c0.565,0,1.024-0.204,1.378-0.612
		C198.007,66.266,198.184,65.75,198.184,65.127z"/>
	<path fill="#414042" d="M205.793,67.994h-1.016v-0.99h-0.024c-0.442,0.759-1.092,1.139-1.95,1.139
		c-0.632,0-1.126-0.167-1.483-0.501c-0.357-0.335-0.535-0.778-0.535-1.332c0-1.185,0.697-1.873,2.093-2.067l1.9-0.267
		c0-1.077-0.436-1.616-1.307-1.616c-0.764,0-1.453,0.261-2.067,0.78v-1.04c0.623-0.396,1.341-0.594,2.154-0.594
		c1.49,0,2.235,0.788,2.235,2.364V67.994z M204.777,64.787l-1.529,0.21c-0.471,0.066-0.825,0.183-1.065,0.351
		c-0.239,0.167-0.358,0.463-0.358,0.888c0,0.31,0.11,0.563,0.331,0.759s0.515,0.294,0.882,0.294c0.504,0,0.92-0.176,1.248-0.529
		c0.328-0.353,0.492-0.8,0.492-1.341V64.787z"/>
	<path fill="#414042" d="M207.321,67.764v-1.089c0.554,0.408,1.162,0.612,1.827,0.612c0.892,0,1.337-0.297,1.337-0.892
		c0-0.169-0.038-0.313-0.114-0.43c-0.076-0.118-0.18-0.223-0.31-0.313c-0.13-0.09-0.283-0.172-0.458-0.244
		c-0.176-0.072-0.364-0.147-0.566-0.226c-0.281-0.112-0.527-0.225-0.74-0.338s-0.39-0.241-0.532-0.384s-0.25-0.305-0.322-0.486
		s-0.108-0.394-0.108-0.638c0-0.297,0.068-0.561,0.204-0.789c0.137-0.229,0.318-0.421,0.545-0.576
		c0.228-0.154,0.486-0.271,0.777-0.35s0.591-0.117,0.9-0.117c0.549,0,1.041,0.095,1.474,0.284v1.028
		c-0.466-0.306-1.003-0.459-1.609-0.459c-0.19,0-0.361,0.022-0.514,0.065c-0.153,0.043-0.284,0.104-0.394,0.183
		s-0.194,0.173-0.254,0.282s-0.09,0.229-0.09,0.361c0,0.166,0.03,0.304,0.09,0.415s0.147,0.211,0.264,0.298
		c0.115,0.086,0.256,0.165,0.421,0.234c0.165,0.07,0.353,0.147,0.563,0.229c0.28,0.107,0.532,0.218,0.755,0.331
		c0.223,0.114,0.413,0.242,0.569,0.384c0.157,0.143,0.278,0.307,0.362,0.492c0.085,0.187,0.127,0.407,0.127,0.663
		c0,0.313-0.068,0.586-0.207,0.817c-0.139,0.23-0.323,0.423-0.555,0.575c-0.23,0.153-0.497,0.267-0.798,0.341
		c-0.302,0.074-0.617,0.111-0.947,0.111C208.366,68.142,207.801,68.016,207.321,67.764z"/>
	<path fill="#414042" d="M221.655,65.078h-4.477c0.017,0.706,0.207,1.25,0.57,1.635c0.363,0.384,0.862,0.575,1.498,0.575
		c0.714,0,1.37-0.235,1.969-0.706v0.954c-0.557,0.404-1.294,0.606-2.21,0.606c-0.896,0-1.6-0.288-2.111-0.863
		c-0.512-0.576-0.768-1.386-0.768-2.431c0-0.986,0.279-1.79,0.839-2.411c0.559-0.621,1.254-0.932,2.083-0.932
		c0.83,0,1.472,0.268,1.926,0.805c0.454,0.536,0.681,1.281,0.681,2.235V65.078z M220.615,64.217
		c-0.004-0.587-0.146-1.043-0.424-1.369s-0.666-0.489-1.161-0.489c-0.479,0-0.885,0.172-1.22,0.515
		c-0.334,0.343-0.541,0.79-0.619,1.344H220.615z"/>
	<path fill="#414042" d="M229.605,67.932c-0.239,0.132-0.555,0.197-0.947,0.197c-1.11,0-1.666-0.619-1.666-1.857V62.52h-1.089
		v-0.866h1.089v-1.548l1.016-0.328v1.876h1.598v0.866h-1.598v3.573c0,0.425,0.072,0.729,0.217,0.91s0.384,0.272,0.719,0.272
		c0.256,0,0.477-0.07,0.662-0.211V67.932z"/>
	<path fill="#414042" d="M234.268,62.681c-0.178-0.136-0.434-0.204-0.768-0.204c-0.434,0-0.796,0.204-1.087,0.613
		c-0.291,0.408-0.437,0.966-0.437,1.671v3.232h-1.016v-6.34h1.016v1.306h0.025c0.145-0.445,0.365-0.793,0.662-1.043
		s0.63-0.374,0.997-0.374c0.264,0,0.466,0.028,0.606,0.086V62.681z"/>
	<path fill="#414042" d="M237.854,68.142c-0.937,0-1.686-0.296-2.244-0.889c-0.56-0.592-0.839-1.377-0.839-2.355
		c0-1.065,0.291-1.896,0.873-2.495s1.368-0.897,2.358-0.897c0.945,0,1.684,0.291,2.214,0.872c0.53,0.582,0.796,1.39,0.796,2.421
		c0,1.012-0.286,1.822-0.858,2.431C239.583,67.838,238.816,68.142,237.854,68.142z M237.929,62.359
		c-0.652,0-1.168,0.223-1.548,0.666s-0.569,1.056-0.569,1.836c0,0.751,0.191,1.344,0.575,1.777c0.385,0.433,0.898,0.649,1.542,0.649
		c0.656,0,1.161-0.212,1.514-0.638c0.354-0.425,0.529-1.029,0.529-1.813c0-0.793-0.176-1.404-0.529-1.833
		C239.09,62.574,238.585,62.359,237.929,62.359z"/>
	<path fill="#414042" d="M246.956,67.703c-0.487,0.293-1.065,0.439-1.733,0.439c-0.904,0-1.634-0.294-2.189-0.882
		c-0.555-0.589-0.832-1.351-0.832-2.288c0-1.044,0.299-1.883,0.897-2.517s1.397-0.95,2.396-0.95c0.557,0,1.048,0.103,1.474,0.31
		v1.04c-0.471-0.33-0.975-0.496-1.511-0.496c-0.648,0-1.18,0.232-1.595,0.697c-0.415,0.464-0.622,1.074-0.622,1.829
		c0,0.743,0.195,1.329,0.585,1.759c0.39,0.429,0.913,0.644,1.569,0.644c0.554,0,1.073-0.184,1.561-0.551V67.703z"/>
	<path fill="#414042" d="M253.03,67.994h-1.016v-0.99h-0.024c-0.442,0.759-1.092,1.139-1.95,1.139c-0.632,0-1.126-0.167-1.483-0.501
		c-0.357-0.335-0.535-0.778-0.535-1.332c0-1.185,0.697-1.873,2.093-2.067l1.9-0.267c0-1.077-0.436-1.616-1.307-1.616
		c-0.764,0-1.453,0.261-2.067,0.78v-1.04c0.623-0.396,1.341-0.594,2.154-0.594c1.49,0,2.235,0.788,2.235,2.364V67.994z
		 M252.015,64.787l-1.529,0.21c-0.471,0.066-0.825,0.183-1.065,0.351c-0.239,0.167-0.358,0.463-0.358,0.888
		c0,0.31,0.11,0.563,0.331,0.759s0.515,0.294,0.882,0.294c0.504,0,0.92-0.176,1.248-0.529c0.328-0.353,0.492-0.8,0.492-1.341V64.787
		z"/>
	<path fill="#414042" d="M254.56,67.764v-1.089c0.554,0.408,1.162,0.612,1.827,0.612c0.892,0,1.337-0.297,1.337-0.892
		c0-0.169-0.038-0.313-0.114-0.43c-0.076-0.118-0.18-0.223-0.31-0.313c-0.13-0.09-0.283-0.172-0.458-0.244
		c-0.176-0.072-0.364-0.147-0.566-0.226c-0.281-0.112-0.527-0.225-0.74-0.338s-0.39-0.241-0.532-0.384s-0.25-0.305-0.322-0.486
		s-0.108-0.394-0.108-0.638c0-0.297,0.068-0.561,0.204-0.789c0.137-0.229,0.318-0.421,0.545-0.576
		c0.228-0.154,0.486-0.271,0.777-0.35s0.591-0.117,0.9-0.117c0.549,0,1.041,0.095,1.474,0.284v1.028
		c-0.466-0.306-1.003-0.459-1.609-0.459c-0.19,0-0.361,0.022-0.514,0.065c-0.153,0.043-0.284,0.104-0.394,0.183
		s-0.194,0.173-0.254,0.282s-0.09,0.229-0.09,0.361c0,0.166,0.03,0.304,0.09,0.415s0.147,0.211,0.264,0.298
		c0.115,0.086,0.256,0.165,0.421,0.234c0.165,0.07,0.353,0.147,0.563,0.229c0.28,0.107,0.532,0.218,0.755,0.331
		c0.223,0.114,0.413,0.242,0.569,0.384c0.157,0.143,0.278,0.307,0.362,0.492c0.085,0.187,0.127,0.407,0.127,0.663
		c0,0.313-0.068,0.586-0.207,0.817c-0.139,0.23-0.323,0.423-0.555,0.575c-0.23,0.153-0.497,0.267-0.798,0.341
		c-0.302,0.074-0.617,0.111-0.947,0.111C255.604,68.142,255.039,68.016,254.56,67.764z"/>
</g>
</svg>
